<svg xmlns="http://www.w3.org/2000/svg" width="47" height="36" viewBox="0 0 47 36">
  <g id="Group_1202" data-name="Group 1202" transform="translate(-19 -14)">
    <path id="Path_1935" data-name="Path 1935" d="M12.357-5.437.5,1.152a.334.334,0,0,1-.353.027A.345.345,0,0,1,0,.857V-12.286a.345.345,0,0,1,.147-.321A.334.334,0,0,1,.5-12.58L12.357-5.991a.33.33,0,0,1,.205.277A.33.33,0,0,1,12.357-5.437Z" transform="translate(36 40)" fill="#e7f6fc"/>
    <text id="_" data-name="{" transform="translate(19 44)" fill="#fff" font-size="30" font-family="Lato-Bold, Lato" font-weight="700"><tspan x="0" y="0">{</tspan></text>
    <text id="_2" data-name="}" transform="translate(56 44)" fill="#fff" font-size="30" font-family="Lato-Bold, Lato" font-weight="700"><tspan x="0" y="0">}</tspan></text>
  </g>
</svg>
