<?xml version="1.0" standalone="no"?>
<!DOCTYPE svg PUBLIC "-//W3C//DTD SVG 20010904//EN"
 "http://www.w3.org/TR/2001/REC-SVG-20010904/DTD/svg10.dtd">
<svg version="1.0" xmlns="http://www.w3.org/2000/svg"
 width="512.000000pt" height="512.000000pt" viewBox="0 0 512.000000 512.000000"
 preserveAspectRatio="xMidYMid meet">
<metadata>
Created by potrace 1.14, written by Peter Selinger 2001-2017
</metadata>
<g transform="translate(0.000000,512.000000) scale(0.100000,-0.100000)"
fill="#000000" stroke="none">
<path d="M0 2560 l0 -2560 2560 0 2560 0 0 2560 0 2560 -2560 0 -2560 0 0
-2560z m3532 1392 c10 -10 14 -282 18 -1272 l5 -1260 26 -26 c16 -16 41 -28
67 -31 38 -5 42 -8 42 -35 0 -39 -25 -97 -57 -130 -36 -37 -84 -52 -169 -52
-59 1 -80 5 -118 28 -25 15 -53 40 -61 56 -9 17 -18 30 -21 30 -2 0 -27 -18
-54 -39 -66 -52 -137 -75 -230 -75 -133 1 -251 75 -300 189 -39 91 -41 136
-38 830 l3 670 23 57 c13 32 45 82 72 111 91 100 197 137 394 137 l118 0 -5
318 c-3 179 -10 337 -16 362 -23 92 -24 86 19 105 94 42 252 57 282 27z
m-2511 -801 c113 -43 182 -107 215 -198 14 -40 21 -444 8 -478 -12 -30 -85
-58 -166 -63 -42 -2 -87 -2 -100 1 l-23 6 3 198 c3 175 1 202 -15 232 -29 55
-62 73 -135 74 -70 0 -119 -19 -140 -56 -10 -17 -13 -162 -13 -672 l0 -650 25
-49 c36 -73 66 -90 149 -90 92 0 178 42 250 120 l51 56 45 -27 c60 -35 97 -92
103 -158 4 -52 4 -52 -49 -103 -105 -98 -245 -145 -449 -147 -176 -3 -265 34
-347 141 -70 91 -68 67 -71 871 -2 712 -2 725 18 787 39 115 128 186 273 220
94 21 295 13 368 -15z m1051 18 c130 -28 237 -110 280 -216 l23 -58 0 -726 0
-725 -38 -77 c-31 -62 -50 -87 -94 -122 -105 -82 -255 -118 -410 -97 -155 21
-260 87 -315 200 l-33 67 -3 705 c-2 523 0 720 9 763 28 135 136 240 292 282
63 17 217 19 289 4z m2396 -4 c165 -39 261 -141 293 -311 13 -67 6 -234 -12
-309 -18 -78 -92 -225 -137 -276 -23 -26 -135 -110 -251 -190 l-210 -144 -1
-215 c0 -185 2 -220 18 -250 46 -92 209 -94 269 -3 16 24 18 51 18 214 l-1
187 36 6 c85 14 183 -5 234 -45 l26 -20 0 -192 c0 -208 -5 -239 -48 -308 -75
-117 -286 -186 -493 -161 -197 24 -303 104 -344 256 -14 54 -16 143 -13 786
l3 725 33 67 c67 137 191 196 417 197 56 0 128 -6 163 -14z"/>
<path d="M3037 2876 c-49 -18 -67 -34 -84 -73 -20 -49 -19 -1279 1 -1328 18
-42 42 -55 103 -55 52 0 89 18 136 66 60 60 57 25 55 741 l-3 658 -85 2 c-52
2 -100 -3 -123 -11z"/>
<path d="M1864 2920 c-11 -4 -34 -24 -51 -43 -43 -50 -45 -78 -41 -777 3 -574
4 -596 23 -629 44 -74 118 -98 198 -63 34 15 51 31 66 61 21 39 21 53 21 693
0 728 3 697 -69 745 -35 24 -105 30 -147 13z"/>
<path d="M4255 2923 c-49 -11 -77 -28 -90 -54 -12 -23 -15 -85 -15 -329 0
-165 2 -300 5 -300 17 0 210 157 234 191 44 60 66 155 66 284 0 99 -2 113 -23
143 -13 18 -36 38 -50 46 -31 16 -98 26 -127 19z"/>
</g>
</svg>
