<?xml version="1.0" encoding="utf-8"?>
<!-- Generator: Adobe Illustrator 17.0.0, SVG Export Plug-In . SVG Version: 6.00 Build 0)  -->
<!DOCTYPE svg PUBLIC "-//W3C//DTD SVG 1.1//EN" "http://www.w3.org/Graphics/SVG/1.1/DTD/svg11.dtd">
<svg version="1.1" id="Layer_1" xmlns="http://www.w3.org/2000/svg" xmlns:xlink="http://www.w3.org/1999/xlink" x="0px" y="0px"
	 width="200px" height="53.5px" viewBox="0 0 200 53.5" enable-background="new 0 0 200 53.5" xml:space="preserve">
<g>
	<path fill="#144A7F" d="M1.66,23.667v-4.853l15.922-9.281v5.194L5.364,21.155v0.085l12.218,6.471v5.236L1.66,23.667z"/>
	<path fill="#144A7F" d="M19.84,15.451c0-3.747,2.554-7.365,7.067-7.365s7.28,3.917,7.28,7.791c0,2.043,0,2.299-0.511,2.341
		l-5.577,0.298c-0.298,0.043-0.511-0.255-0.511-0.511v-3.15c0-0.511-0.341-0.851-0.681-0.851c-0.298,0-0.681,0.34-0.681,0.851
		v11.324c0,0.511,0.383,0.852,0.724,0.852c0.298,0,0.639-0.341,0.639-0.852v-2.725c0-0.255,0.17-0.426,0.468-0.426l5.662,0.298
		c0.298,0.042,0.468,0.255,0.468,0.511c0,2.895,0,9.792-7.45,9.792c-4.087,0-6.896-3.193-6.896-8.131V15.451z"/>
	<path fill="#144A7F" d="M35.38,14.685c0-3.917,2.938-6.599,7.322-6.599s7.322,2.639,7.322,6.812v12.09
		c0,3.96-2.938,6.642-7.322,6.642c-4.342,0-7.322-2.725-7.322-6.642V14.685z M42.021,25.881c0,0.511,0.213,0.852,0.681,0.852
		s0.681-0.341,0.681-0.852V15.749c0-0.468-0.255-0.851-0.681-0.851c-0.468,0-0.681,0.383-0.681,0.851V25.881z"/>
	<path fill="#144A7F" d="M59.563,33.629c-0.213,0-0.638-1.064-0.809-1.064c-0.085,0-0.213,0.085-0.511,0.298
		c-0.596,0.469-1.49,0.767-2.469,0.767c-2.129,0-4.555-1.49-4.555-8.472V16.26c0-6.471,2.639-8.174,4.853-8.174
		c0.979,0,1.788,0.298,2.384,0.894c0.212,0.213,0.34,0.298,0.425,0.298c0.043,0,0.128-0.085,0.128-0.341v-7.45
		c0-0.212,0.17-0.425,0.383-0.425h5.534c0.213,0,0.383,0.127,0.383,0.34v31.844c0,0.213-0.213,0.383-0.383,0.383H59.563z
		 M59.009,15.919c0-0.639-0.383-1.107-0.809-1.107c-0.383,0-0.553,0.383-0.553,0.809v10.686c0,0.255,0,0.809,0.553,0.809
		c0.17,0,0.341-0.085,0.468-0.213c0.17-0.17,0.341-0.426,0.341-0.809V15.919z"/>
	<path fill="#144A7F" d="M66.802,14.982c0-5.023,3.874-6.896,7.322-6.896c4.811,0,7.578,3.704,7.578,7.875v2.597
		c0,0.213-0.17,0.383-0.383,0.383h-7.11c-0.17,0-0.255,0.128-0.255,0.341v6.684c0,0.682,0.298,0.937,0.681,0.937
		c0.298,0,0.681-0.255,0.681-0.894v-2.597c0-0.17,0.128-0.34,0.383-0.34l5.492,0.298c0.255,0.042,0.426,0.213,0.426,0.468v2.724
		c0,5.449-3.747,7.067-7.663,7.067c-4.555,0-7.152-3.235-7.152-8.089V14.982z M73.954,16.43c0,0.128,0.128,0.213,0.255,0.213
		c0.979,0,1.107,0,1.107-0.213c0-2.725-0.042-3.022-0.724-3.022c-0.341,0-0.639,0.255-0.639,0.894V16.43z"/>
	<path fill="#144A7F" d="M93.155,8.086c0.17,0,0.596,1.064,0.809,1.064c0.085,0,0.213-0.085,0.468-0.298
		c0.639-0.468,1.532-0.766,2.512-0.766c2.128,0,4.555,1.49,4.555,8.472v8.897c0,6.471-2.682,8.174-4.854,8.174
		c-0.979,0-1.788-0.341-2.426-0.894c-0.213-0.213-0.298-0.299-0.383-0.299c-0.042,0-0.127,0.086-0.127,0.341v6.812
		c0,0.213-0.17,0.426-0.383,0.426h-5.535c-0.213,0-0.383-0.17-0.383-0.383V8.469c0-0.213,0.213-0.383,0.383-0.383H93.155z
		 M93.709,25.796c0,0.639,0.34,1.106,0.809,1.106c0.383,0,0.554-0.383,0.554-0.852V15.366c0-0.213,0-0.767-0.554-0.767
		c-0.17,0-0.383,0.085-0.468,0.17c-0.213,0.213-0.34,0.468-0.34,0.809V25.796z"/>
	<path fill="#144A7F" d="M103.246,33.629c-0.17,0-0.34-0.213-0.34-0.383V1.572c0-0.383,0.17-0.511,0.468-0.511h6.003
		c0.298,0,0.426,0.127,0.426,0.383v31.844c0,0.171-0.171,0.341-0.341,0.341H103.246z"/>
	<path fill="#144A7F" d="M111.761,16.685c-0.298,0-0.298-0.213-0.298-2.213c0-3.363,2.598-6.386,7.024-6.386
		c4.684,0,7.28,2.937,7.28,6.258v11.537c0,0.341,0.128,0.341,1.064,0.341c0.17,0,0.298,0.17,0.298,0.34v2.64
		c0,2.086-1.831,4.556-4.215,4.556c-1.958,0-2.725-0.639-3.363-1.618c-0.213-0.298-0.341-0.383-0.426-0.383
		c-0.042,0-0.213,0.085-0.468,0.426c-0.469,0.639-1.49,1.447-2.98,1.447c-1.788,0-4.428-1.49-4.428-5.747v-3.15
		c0-3.363,2.257-5.151,4.598-6.13c3.108-1.32,3.278-1.788,3.278-3.278c0-0.596-0.255-0.894-0.639-0.894
		c-0.681,0-0.681,0.256-0.681,2.214c0,0.213-0.171,0.341-0.384,0.341L111.761,16.685z M119.126,22.688
		c0-0.17-0.085-0.298-0.255-0.341c-0.256,0-1.107,0.383-1.107,1.32v3.15c0,0.511,0.341,0.724,0.682,0.724
		c0.34,0,0.681-0.213,0.681-0.724V22.688z"/>
	<path fill="#144A7F" d="M125.982,8.384c0-0.128,0.043-0.298,0.213-0.298h5.875c0.213,0,0.298,0.127,0.341,0.298l0.937,6.386
		c0.042,0.17,0.085,0.34,0.17,0.34c0.043,0,0.128-0.17,0.17-0.34l1.192-6.471c0.043-0.085,0.085-0.212,0.256-0.212h5.619
		c0.17,0,0.298,0.127,0.256,0.17l-6.003,31.418c-0.043,0.171-0.17,0.341-0.383,0.341h-5.449c-0.213,0-0.341-0.17-0.299-0.383
		l1.959-10.729c0.042-0.213,0.042-0.426,0-0.639L125.982,8.384z"/>
	<path fill="#144A7F" d="M141.607,14.982c0-5.023,3.874-6.896,7.322-6.896c4.812,0,7.578,3.704,7.578,7.875v2.597
		c0,0.213-0.17,0.383-0.383,0.383h-7.109c-0.171,0-0.256,0.128-0.256,0.341v6.684c0,0.682,0.298,0.937,0.682,0.937
		c0.298,0,0.681-0.255,0.681-0.894v-2.597c0-0.17,0.128-0.34,0.383-0.34l5.492,0.298c0.256,0.042,0.426,0.213,0.426,0.468v2.724
		c0,5.449-3.746,7.067-7.663,7.067c-4.555,0-7.152-3.235-7.152-8.089V14.982z M148.76,16.43c0,0.128,0.128,0.213,0.256,0.213
		c0.979,0,1.106,0,1.106-0.213c0-2.725-0.043-3.022-0.724-3.022c-0.341,0-0.639,0.255-0.639,0.894V16.43z"/>
	<path fill="#144A7F" d="M157.957,8.426c0-0.213,0.085-0.34,0.255-0.34h6.003c0.256,0,0.554,1.362,0.767,1.362
		c0.085,0,0.17-0.085,0.255-0.298c0.426-1.021,1.362-1.064,2.683-1.064c0.128,0,0.255,0.127,0.255,0.298v6.13
		c0,0.17-0.085,0.298-0.298,0.298c-2.171,0-3.022,1.149-3.022,4.598v13.836c0,0.213-0.17,0.383-0.383,0.383h-6.216
		c-0.17,0-0.298-0.128-0.298-0.341V8.426z"/>
	<path fill="#144A7F" d="M177.243,2.083c0.042-0.255,0.17-0.383,0.383-0.383h3.278c0.17,0,0.298,0.213,0.298,0.383l-4.3,31.163
		c-0.043,0.255-0.213,0.383-0.469,0.383h-3.149c-0.213,0-0.299-0.213-0.256-0.469L177.243,2.083z"/>
	<path fill="#144A7F" d="M198.784,18.814v4.896l-15.922,9.238v-5.236l12.219-6.471v-0.085l-12.219-6.428V9.533L198.784,18.814z"/>
</g>
<g>
	<path fill="#767676" d="M130.475,50.824c-0.023,0.023-0.047,0.063-0.07,0.12s-0.052,0.099-0.085,0.126s-0.093,0.041-0.179,0.041
		c-0.066,0-0.171-0.017-0.313-0.05s-0.255-0.05-0.337-0.05s-0.196,0.017-0.343,0.05s-0.257,0.05-0.331,0.05
		c-0.09,0-0.168-0.022-0.234-0.068s-0.1-0.107-0.1-0.187c0-0.052,0.02-0.096,0.059-0.131c0.039-0.036,0.174-0.077,0.404-0.124
		c0.231-0.047,0.389-0.137,0.473-0.269c0.083-0.133,0.125-0.291,0.125-0.475v-6.014c0-0.324-0.076-0.55-0.227-0.679
		c-0.086-0.074-0.223-0.125-0.412-0.152c-0.188-0.027-0.301-0.063-0.34-0.109c-0.039-0.045-0.059-0.1-0.059-0.163
		s0.038-0.116,0.114-0.157c0.076-0.042,0.149-0.063,0.22-0.063c0.078,0,0.193,0.017,0.346,0.05s0.266,0.05,0.34,0.05
		c0.07,0,0.17-0.013,0.299-0.038s0.225-0.038,0.287-0.038c0.117,0,0.203,0.032,0.258,0.097s0.082,0.185,0.082,0.36v6.855
		c0,0.242,0.148,0.458,0.447,0.647s0.58,0.284,0.845,0.284c0.304,0,0.626-0.129,0.965-0.387s0.509-0.686,0.509-1.283
		c0-0.465-0.135-0.862-0.403-1.192s-0.618-0.495-1.046-0.495c-0.164,0-0.333,0.045-0.506,0.135c-0.174,0.09-0.287,0.135-0.342,0.135
		c-0.047,0-0.096-0.021-0.144-0.062c-0.049-0.041-0.073-0.081-0.073-0.12c0-0.176,0.15-0.33,0.45-0.463s0.565-0.199,0.796-0.199
		c0.64,0,1.173,0.229,1.6,0.688c0.428,0.459,0.641,1.019,0.641,1.679c0,0.605-0.223,1.104-0.67,1.497s-0.986,0.589-1.617,0.589
		c-0.32,0-0.726-0.129-1.217-0.386L130.475,50.824z"/>
	<path fill="#767676" d="M137.806,50.291c0.101,0,0.151,0.049,0.151,0.146c0,0.121-0.156,0.271-0.468,0.451s-0.622,0.27-0.93,0.27
		c-0.21,0-0.437-0.071-0.678-0.214c-0.241-0.142-0.394-0.319-0.453-0.532c-0.061-0.212-0.091-0.596-0.091-1.149l0.012-1.176
		c0-0.315-0.141-0.503-0.422-0.562c-0.164-0.031-0.269-0.063-0.313-0.092s-0.067-0.088-0.067-0.175c0-0.063,0.018-0.118,0.053-0.163
		c0.035-0.046,0.082-0.068,0.141-0.068c0.056,0,0.167,0.019,0.336,0.056c0.168,0.037,0.276,0.056,0.323,0.056
		c0.055,0,0.169-0.019,0.341-0.056c0.173-0.037,0.28-0.056,0.323-0.056c0.028,0,0.062,0.014,0.101,0.041s0.062,0.057,0.067,0.088
		s0.014,0.302,0.023,0.813c0.01,0.512,0.015,0.981,0.015,1.41c0,0.328,0.012,0.564,0.035,0.711s0.096,0.265,0.218,0.356
		s0.284,0.138,0.486,0.138c0.151,0,0.308-0.049,0.472-0.146C137.643,50.34,137.752,50.291,137.806,50.291z M138.899,47.027
		c0.138,0,0.206,0.096,0.206,0.287c0,0.379,0.006,0.932,0.018,1.658s0.018,1.215,0.018,1.465c0,0.875-0.102,1.501-0.305,1.878
		c-0.204,0.377-0.422,0.64-0.655,0.788s-0.519,0.223-0.854,0.223c-0.285,0-0.512-0.041-0.678-0.123
		c-0.167-0.082-0.25-0.156-0.25-0.223c0-0.031,0.016-0.065,0.047-0.103s0.068-0.056,0.111-0.056c0.031,0,0.095,0.02,0.19,0.059
		s0.204,0.059,0.325,0.059c0.219,0,0.433-0.073,0.642-0.22c0.209-0.146,0.344-0.348,0.404-0.604
		c0.061-0.258,0.091-0.642,0.091-1.152c0-1.832-0.005-2.851-0.015-3.058c-0.01-0.206-0.155-0.332-0.437-0.377
		s-0.422-0.139-0.422-0.281c0-0.146,0.1-0.22,0.3-0.22c0.066,0,0.187,0.012,0.361,0.035s0.318,0.035,0.433,0.035
		c0.086,0,0.176-0.012,0.27-0.035C138.794,47.039,138.86,47.027,138.899,47.027z"/>
	<path fill="#767676" d="M150.191,49.841c0,0.16,0.037,0.302,0.111,0.425c0.074,0.122,0.224,0.206,0.448,0.251
		s0.358,0.091,0.401,0.138s0.064,0.104,0.064,0.17c0,0.07-0.03,0.13-0.091,0.179c-0.06,0.049-0.147,0.073-0.261,0.073
		c-0.085,0-0.251-0.019-0.496-0.056c-0.246-0.037-0.451-0.056-0.614-0.056c-0.109,0-0.304,0.019-0.585,0.056
		s-0.481,0.056-0.603,0.056c-0.249,0-0.374-0.092-0.374-0.275c0-0.09,0.027-0.149,0.082-0.179s0.141-0.05,0.258-0.062
		c0.285-0.031,0.464-0.085,0.536-0.161s0.108-0.255,0.108-0.535v-5.022c0-0.215-0.01-0.322-0.03-0.322
		c-0.028,0-0.095,0.104-0.198,0.311l-0.907,1.773c-0.378,0.741-0.723,1.399-1.032,1.975c-0.311,0.576-0.477,0.885-0.498,0.928
		s-0.046,0.078-0.073,0.105s-0.07,0.041-0.129,0.041c-0.098,0-0.187-0.076-0.265-0.229l-2.188-4.33
		c-0.102-0.203-0.164-0.305-0.188-0.305c-0.02,0-0.029,0.102-0.029,0.304v4.959c0,0.145,0.063,0.265,0.188,0.359
		c0.125,0.096,0.246,0.144,0.363,0.144c0.328,0,0.492,0.093,0.492,0.278c0,0.17-0.143,0.255-0.428,0.255
		c-0.047,0-0.179-0.021-0.396-0.062s-0.37-0.062-0.46-0.062c-0.117,0-0.278,0.022-0.483,0.067s-0.351,0.067-0.437,0.067
		c-0.125,0-0.227-0.032-0.305-0.098s-0.117-0.133-0.117-0.204s0.046-0.134,0.138-0.187c0.092-0.054,0.198-0.08,0.319-0.08
		c0.383,0,0.574-0.225,0.574-0.673v-6.119c0-0.16-0.051-0.298-0.152-0.412c-0.102-0.115-0.246-0.186-0.434-0.211
		s-0.311-0.065-0.369-0.12s-0.088-0.123-0.088-0.205c0-0.059,0.038-0.111,0.114-0.158s0.153-0.07,0.231-0.07
		c0.082,0,0.184,0.017,0.305,0.05s0.219,0.05,0.293,0.05s0.169-0.017,0.282-0.05s0.205-0.05,0.275-0.05
		c0.094,0,0.169,0.037,0.226,0.111s0.137,0.223,0.238,0.445l1.33,2.684l1.114,2.232c0.047,0.094,0.082,0.141,0.105,0.141
		c0.027,0,0.063-0.043,0.105-0.129c1.206-2.266,2.052-3.875,2.536-4.828c0.144-0.281,0.268-0.459,0.371-0.533
		s0.214-0.111,0.331-0.111c0.055,0,0.146,0.008,0.274,0.023c0.129,0.016,0.227,0.023,0.293,0.023c0.063,0,0.143-0.01,0.238-0.029
		c0.095-0.02,0.154-0.029,0.178-0.029c0.211,0,0.316,0.085,0.316,0.255c0,0.139-0.102,0.208-0.305,0.208
		c-0.168,0-0.314,0.06-0.439,0.179s-0.201,0.204-0.229,0.257s-0.041,0.179-0.041,0.378V49.841z"/>
	<path fill="#767676" d="M153.912,46.787c0.648,0,1.214,0.223,1.696,0.668s0.724,0.959,0.724,1.541c0,0.652-0.23,1.184-0.691,1.594
		s-1.078,0.615-1.852,0.615c-0.609,0-1.157-0.209-1.644-0.627s-0.729-0.938-0.729-1.559c0-0.594,0.214-1.114,0.642-1.562
		S153.104,46.787,153.912,46.787z M153.918,50.689c0.449,0,0.808-0.162,1.075-0.486s0.401-0.734,0.401-1.23
		c0-0.488-0.144-0.889-0.431-1.201s-0.651-0.469-1.093-0.469c-0.453,0-0.805,0.153-1.055,0.46s-0.375,0.702-0.375,1.187
		c0,0.535,0.139,0.959,0.416,1.271S153.488,50.689,153.918,50.689z"/>
	<path fill="#767676" d="M158.471,50.209c0,0.109,0.029,0.202,0.088,0.278s0.187,0.128,0.384,0.155s0.317,0.064,0.36,0.112
		s0.064,0.106,0.064,0.178c0,0.127-0.111,0.19-0.335,0.19c-0.117,0-0.292-0.013-0.522-0.038s-0.405-0.038-0.522-0.038
		c-0.11,0-0.271,0.013-0.481,0.038s-0.372,0.038-0.481,0.038c-0.274,0-0.411-0.071-0.411-0.214c0-0.067,0.02-0.122,0.059-0.163
		c0.039-0.042,0.161-0.074,0.366-0.098s0.34-0.094,0.404-0.211s0.097-0.254,0.097-0.409v-6.317c0-0.098-0.033-0.186-0.1-0.264
		s-0.197-0.15-0.393-0.217s-0.312-0.117-0.349-0.153c-0.037-0.035-0.056-0.073-0.056-0.113c0-0.139,0.115-0.208,0.347-0.208
		c0.067,0,0.169,0.008,0.306,0.023s0.239,0.023,0.306,0.023c0.071,0,0.169-0.018,0.297-0.053s0.223-0.053,0.285-0.053
		c0.087,0,0.155,0.025,0.208,0.076c0.054,0.051,0.08,0.182,0.08,0.393V50.209z M161.406,50.121c0,0.141,0.03,0.263,0.091,0.366
		s0.188,0.168,0.381,0.193s0.309,0.06,0.346,0.104s0.056,0.097,0.056,0.16c0,0.091-0.028,0.146-0.085,0.167
		c-0.058,0.02-0.169,0.029-0.338,0.029c-0.102,0-0.257-0.01-0.464-0.029s-0.36-0.029-0.458-0.029c-0.11,0-0.272,0.012-0.487,0.035
		s-0.378,0.035-0.487,0.035c-0.251,0-0.376-0.085-0.376-0.255c0-0.06,0.02-0.108,0.059-0.146c0.039-0.038,0.157-0.067,0.354-0.089
		s0.328-0.081,0.393-0.179c0.064-0.099,0.097-0.214,0.097-0.347c0-0.204-0.004-0.505-0.012-0.904s-0.012-0.7-0.012-0.904
		c0-0.184-0.053-0.325-0.16-0.426c-0.106-0.1-0.257-0.149-0.451-0.149c-0.193,0-0.415,0.094-0.664,0.281
		c-0.154,0.117-0.271,0.176-0.349,0.176c-0.039,0-0.08-0.021-0.122-0.065c-0.043-0.043-0.064-0.087-0.064-0.13
		c0-0.202,0.203-0.423,0.611-0.663c0.407-0.24,0.733-0.36,0.979-0.36c0.238,0,0.467,0.07,0.685,0.211s0.364,0.314,0.438,0.521
		c0.039,0.094,0.059,0.416,0.059,0.967c0,0.234-0.003,0.517-0.009,0.847S161.406,50.063,161.406,50.121z"/>
	<path fill="#767676" d="M167.348,49.735c0,0.191,0.039,0.365,0.117,0.523s0.219,0.272,0.422,0.343s0.32,0.121,0.352,0.153
		c0.031,0.031,0.047,0.067,0.047,0.106c0,0.171-0.09,0.256-0.271,0.256c-0.059,0-0.142-0.016-0.247-0.047s-0.242-0.047-0.411-0.047
		c-0.114,0-0.238,0.016-0.373,0.047c-0.136,0.031-0.221,0.047-0.256,0.047c-0.075,0-0.138-0.027-0.188-0.082
		s-0.079-0.111-0.085-0.17s-0.019-0.088-0.038-0.088l-0.094,0.041c-0.593,0.336-1.092,0.504-1.498,0.504
		c-0.576,0-1.097-0.221-1.559-0.662c-0.463-0.441-0.693-0.947-0.693-1.518c0-0.652,0.234-1.189,0.702-1.611s1.012-0.633,1.632-0.633
		c0.262,0,0.53,0.065,0.807,0.195c0.277,0.13,0.416,0.274,0.416,0.434c0,0.05-0.019,0.093-0.056,0.128s-0.079,0.052-0.126,0.052
		c-0.059,0-0.193-0.048-0.406-0.144c-0.212-0.096-0.408-0.144-0.588-0.144c-0.393,0-0.727,0.164-0.999,0.493
		s-0.409,0.72-0.409,1.174c0,0.388,0.123,0.771,0.371,1.15s0.586,0.569,1.015,0.569c0.229,0,0.494-0.063,0.792-0.19
		c0.299-0.127,0.488-0.299,0.57-0.515c0.082-0.217,0.123-0.546,0.123-0.987v-5.035c0-0.324-0.055-0.548-0.164-0.673
		s-0.268-0.219-0.475-0.281s-0.334-0.109-0.381-0.142c-0.047-0.031-0.07-0.083-0.07-0.154c0-0.052,0.029-0.097,0.088-0.134
		c0.059-0.038,0.141-0.057,0.247-0.057c0.043,0,0.136,0.01,0.276,0.029s0.254,0.029,0.341,0.029c0.181,0,0.336-0.008,0.467-0.023
		c0.132-0.016,0.211-0.023,0.238-0.023c0.141,0,0.235,0.04,0.282,0.12s0.07,0.19,0.07,0.331c0,0.257,0.002,0.464,0.006,0.62
		s0.006,0.295,0.006,0.416V49.735z"/>
	<path fill="#767676" d="M174.596,44.666c-0.078-0.18-0.137-0.27-0.176-0.27c-0.047,0-0.119,0.125-0.213,0.375l-1.25,2.862
		l-1.08,2.412c-0.031,0.073-0.047,0.138-0.047,0.192c0,0.059,0.022,0.111,0.067,0.158s0.151,0.094,0.319,0.141
		s0.273,0.094,0.316,0.142c0.043,0.047,0.064,0.101,0.064,0.16c0,0.182-0.117,0.272-0.352,0.272c-0.055,0-0.188-0.017-0.401-0.05
		s-0.39-0.05-0.53-0.05c-0.145,0-0.293,0.015-0.445,0.044s-0.264,0.044-0.334,0.044c-0.098,0-0.178-0.025-0.24-0.077
		s-0.094-0.112-0.094-0.181c0-0.102,0.02-0.168,0.059-0.199s0.11-0.055,0.215-0.07c0.304-0.051,0.512-0.165,0.627-0.343
		s0.41-0.808,0.887-1.89l1.418-3.164c0.348-0.758,0.571-1.261,0.671-1.509s0.149-0.44,0.149-0.577c0-0.047-0.018-0.132-0.052-0.255
		s-0.052-0.212-0.052-0.267c0-0.113,0.061-0.17,0.182-0.17c0.198,0,0.358,0.084,0.479,0.252c0.121,0.168,0.283,0.484,0.486,0.949
		l1.623,3.668c0.59,1.336,0.963,2.162,1.119,2.479s0.285,0.521,0.385,0.612s0.221,0.159,0.359,0.202
		c0.141,0.043,0.235,0.085,0.287,0.126c0.051,0.041,0.076,0.11,0.076,0.208c0,0.137-0.123,0.205-0.37,0.205
		c-0.082,0-0.231-0.013-0.448-0.038c-0.218-0.025-0.434-0.038-0.649-0.038s-0.439,0.015-0.672,0.044
		c-0.233,0.029-0.393,0.044-0.479,0.044c-0.134,0-0.239-0.022-0.317-0.068c-0.078-0.045-0.117-0.107-0.117-0.187
		c0-0.067,0.023-0.123,0.07-0.166c0.048-0.044,0.174-0.075,0.381-0.095c0.206-0.02,0.34-0.063,0.4-0.132
		c0.062-0.067,0.092-0.152,0.092-0.254c0-0.109-0.111-0.41-0.334-0.902c-0.223-0.493-0.361-0.755-0.416-0.786
		s-0.16-0.047-0.316-0.047h-2.613c-0.102,0-0.193-0.032-0.275-0.098s-0.123-0.141-0.123-0.228c0-0.067,0.032-0.127,0.097-0.178
		c0.063-0.052,0.138-0.077,0.22-0.077h2.514c0.141,0,0.211-0.025,0.211-0.076c0-0.031-0.027-0.107-0.082-0.229L174.596,44.666z"/>
	<path fill="#767676" d="M180.057,47.958c0-0.145-0.028-0.253-0.085-0.324c-0.057-0.072-0.175-0.124-0.354-0.155
		s-0.27-0.112-0.27-0.243c0-0.055,0.031-0.109,0.094-0.163s0.146-0.08,0.247-0.08c0.044,0,0.118,0.014,0.227,0.041
		s0.197,0.041,0.268,0.041c0.043,0,0.142-0.012,0.297-0.035s0.252-0.035,0.291-0.035c0.079,0,0.134,0.032,0.165,0.097
		s0.049,0.194,0.053,0.39c0.008,0.324,0.012,0.67,0.012,1.037l-0.035,1.67c0,0.121,0.01,0.195,0.029,0.223s0.065,0.063,0.138,0.105
		s0.165,0.076,0.278,0.1s0.186,0.056,0.217,0.098s0.047,0.09,0.047,0.146c0,0.131-0.102,0.196-0.306,0.196
		c-0.141,0-0.286-0.013-0.435-0.038s-0.295-0.038-0.44-0.038c-0.118,0-0.269,0.011-0.455,0.032s-0.324,0.032-0.414,0.032
		c-0.2,0-0.3-0.073-0.3-0.22c0-0.063,0.018-0.114,0.053-0.154c0.035-0.039,0.111-0.063,0.229-0.071
		c0.133-0.008,0.215-0.027,0.246-0.059c0.09-0.094,0.146-0.176,0.17-0.245c0.023-0.07,0.035-0.215,0.035-0.434V47.958z
		 M183.648,50.209c0,0.168,0.028,0.278,0.085,0.331s0.158,0.096,0.305,0.129s0.22,0.096,0.22,0.188c0,0.123-0.072,0.185-0.217,0.185
		c-0.027,0-0.146-0.007-0.354-0.021C183.48,51.007,183.307,51,183.165,51c-0.235,0-0.433,0.015-0.593,0.044
		c-0.161,0.029-0.265,0.044-0.312,0.044c-0.071,0-0.136-0.023-0.197-0.071c-0.061-0.048-0.091-0.104-0.091-0.172
		c0-0.052,0.025-0.1,0.076-0.146s0.109-0.068,0.176-0.068c0.125,0,0.236-0.036,0.334-0.108s0.146-0.18,0.146-0.324
		c0-0.939,0.006-1.521,0.018-1.746c0.012-0.224,0.018-0.35,0.018-0.377c0-0.304-0.14-0.456-0.419-0.456
		c-0.12,0-0.292,0.092-0.515,0.275s-0.381,0.275-0.475,0.275c-0.03,0-0.065-0.02-0.104-0.06c-0.039-0.039-0.059-0.081-0.059-0.125
		c0-0.139,0.18-0.349,0.537-0.63c0.359-0.281,0.71-0.422,1.053-0.422c0.203,0,0.378,0.052,0.526,0.155
		c0.147,0.104,0.247,0.233,0.295,0.39c0.049,0.156,0.073,0.377,0.073,0.662l-0.006,0.375V50.209z"/>
	<path fill="#767676" d="M188.465,48.727c0.09,0,0.15-0.016,0.182-0.047c0.031-0.03,0.047-0.087,0.047-0.168
		c0-0.299-0.116-0.577-0.349-0.837s-0.583-0.39-1.052-0.39c-0.324,0-0.659,0.154-1.005,0.462c-0.346,0.309-0.519,0.745-0.519,1.311
		c0,0.413,0.182,0.785,0.547,1.114s0.773,0.494,1.226,0.494c0.343,0,0.714-0.107,1.111-0.322c0.151-0.082,0.251-0.123,0.298-0.123
		c0.07,0,0.126,0.02,0.167,0.06c0.041,0.039,0.062,0.089,0.062,0.148c0,0.143-0.216,0.315-0.647,0.519s-0.876,0.305-1.333,0.305
		c-0.676,0-1.244-0.23-1.705-0.691s-0.691-1.01-0.691-1.646c0-0.582,0.253-1.08,0.759-1.494s1.073-0.621,1.702-0.621
		c0.816,0,1.428,0.209,1.834,0.627s0.609,0.918,0.609,1.5c0,0.125-0.031,0.202-0.094,0.231s-0.178,0.044-0.345,0.044h-2.685
		c-0.219,0-0.328-0.081-0.328-0.243c0-0.154,0.113-0.231,0.34-0.231H188.465z"/>
	<path fill="#767676" d="M193.709,48.727c0.09,0,0.15-0.016,0.182-0.047c0.031-0.03,0.047-0.087,0.047-0.168
		c0-0.299-0.116-0.577-0.349-0.837s-0.583-0.39-1.052-0.39c-0.324,0-0.659,0.154-1.005,0.462c-0.346,0.309-0.519,0.745-0.519,1.311
		c0,0.413,0.182,0.785,0.547,1.114s0.773,0.494,1.226,0.494c0.343,0,0.714-0.107,1.111-0.322c0.151-0.082,0.251-0.123,0.298-0.123
		c0.07,0,0.126,0.02,0.167,0.06c0.041,0.039,0.062,0.089,0.062,0.148c0,0.143-0.216,0.315-0.647,0.519s-0.876,0.305-1.333,0.305
		c-0.676,0-1.244-0.23-1.705-0.691s-0.691-1.01-0.691-1.646c0-0.582,0.253-1.08,0.759-1.494s1.073-0.621,1.702-0.621
		c0.816,0,1.428,0.209,1.834,0.627s0.609,0.918,0.609,1.5c0,0.125-0.031,0.202-0.094,0.231s-0.178,0.044-0.345,0.044h-2.685
		c-0.219,0-0.328-0.081-0.328-0.243c0-0.154,0.113-0.231,0.34-0.231H193.709z"/>
	<path fill="#767676" d="M196.387,47.712c0,0.09,0.042,0.182,0.126,0.275c0.083,0.094,0.352,0.259,0.803,0.497
		c0.452,0.238,0.757,0.471,0.915,0.7c0.157,0.229,0.236,0.47,0.236,0.724c0,0.396-0.165,0.71-0.495,0.945
		c-0.33,0.234-0.757,0.352-1.28,0.352c-0.289,0-0.577-0.063-0.864-0.19s-0.431-0.255-0.431-0.384c0-0.106-0.008-0.236-0.023-0.392
		s-0.023-0.28-0.023-0.374c0-0.192,0.089-0.289,0.267-0.289c0.052,0,0.1,0.021,0.143,0.064c0.044,0.043,0.112,0.187,0.205,0.431
		s0.206,0.411,0.341,0.501c0.134,0.09,0.284,0.135,0.45,0.135c0.206,0,0.38-0.068,0.524-0.205c0.143-0.136,0.215-0.312,0.215-0.526
		c0-0.14-0.049-0.271-0.146-0.395c-0.097-0.123-0.363-0.288-0.797-0.494c-0.435-0.207-0.717-0.409-0.848-0.605
		c-0.13-0.197-0.195-0.411-0.195-0.641c0-0.305,0.142-0.561,0.425-0.767c0.283-0.207,0.612-0.311,0.987-0.311
		c0.313,0,0.617,0.055,0.914,0.163s0.445,0.225,0.445,0.347c0,0.074,0.008,0.166,0.023,0.275s0.023,0.197,0.023,0.264
		c0,0.082-0.021,0.154-0.063,0.217c-0.041,0.063-0.094,0.094-0.157,0.094c-0.091,0-0.155-0.022-0.192-0.067
		c-0.038-0.046-0.072-0.125-0.104-0.239c-0.03-0.114-0.081-0.205-0.15-0.271c-0.07-0.066-0.163-0.128-0.279-0.183
		c-0.116-0.056-0.246-0.083-0.39-0.083s-0.28,0.046-0.41,0.138S196.387,47.606,196.387,47.712z"/>
</g>
</svg>
